PathFileType	4	(X/Y/Z)	OpenSim_Sub09_EMGBaseline_Magnet.trc
DataRate	CameraRate	NumFrames	NumMarkers	Units	OrigDataRate	OrigDataStartFrame	OrigNumFrames
100	100	23	8	m	100	1826	7301
Frame#	Time	torso_imu_offset_imu	pelvis_imu_offset_imu	tibia_r_imu_offset_imu	femur_r_imu_offset_imu	tibia_l_imu_offset_imu	femur_l_imu_offset_imu	toes_r_imu_offset_imu	toes_l_imu_offset_imu
				X1	Y1	Z1	X2	Y2	Z2	X3	Y3	Z3	X4	Y4	Z4	X5	Y5	Z5	X6	Y6	Z6	X7	Y7	Z7	X8		Y8	Z8	

1826	18.25000000	-0.91796900	-0.19653300	0.06591800	-0.68066400	0.18481400	-0.61889600	-0.47876000	-0.74731400	-0.10400400	-0.65918000	-0.51220700	0.13818400	-0.76611300	0.24316400	0.05249000	-0.81372100	0.08007800	0.18261700	-0.61865200	-0.24072300	-0.40405300	-0.53051800	-0.26611300	-0.55151400
1827	18.26000000	-0.92016600	-0.20068400	0.06396500	-0.67651400	0.18505900	-0.61669900	-0.46606400	-0.75366200	-0.10595700	-0.65502900	-0.51635700	0.13378900	-0.76635700	0.25195300	0.04296900	-0.81567400	0.07568400	0.18945300	-0.61865200	-0.24682600	-0.40600600	-0.53320300	-0.25073200	-0.54711900
1828	18.27000000	-0.91821300	-0.19433600	0.06591800	-0.67871100	0.18701200	-0.61206100	-0.45532200	-0.75781200	-0.10571300	-0.65063500	-0.52246100	0.13183600	-0.75756800	0.25415000	0.04492200	-0.81323200	0.06713900	0.18505900	-0.62890600	-0.24902300	-0.40600600	-0.55639600	-0.22900400	-0.53588900
1829	18.28000000	-0.91601600	-0.19213900	0.06152300	-0.68090800	0.19116200	-0.61206100	-0.44018600	-0.77026400	-0.10986300	-0.64843800	-0.52026400	0.12500000	-0.76025400	0.26733400	0.05346700	-0.81054700	0.05835000	0.19873000	-0.63281200	-0.25512700	-0.40795900	-0.57080100	-0.20483400	-0.53369100
1830	18.29000000	-0.92016600	-0.20068400	0.05517600	-0.67871100	0.18701200	-0.60742200	-0.43188500	-0.77221700	-0.11206100	-0.65258800	-0.52246100	0.12255900	-0.75366200	0.27612300	0.06396500	-0.81054700	0.05615200	0.19189500	-0.63696300	-0.25537100	-0.40600600	-0.58276400	-0.18310500	-0.52050800
1831	18.30000000	-0.91992200	-0.20288100	0.05517600	-0.68725600	0.18896500	-0.60034200	-0.41674800	-0.78271500	-0.11596700	-0.64599600	-0.53076200	0.11840800	-0.74926800	0.28271500	0.07714800	-0.80615200	0.05419900	0.20996100	-0.64086900	-0.26562500	-0.39965800	-0.60131800	-0.16796900	-0.50927700
1832	18.31000000	-0.92016600	-0.19653300	0.05053700	-0.68530300	0.19311500	-0.59594700	-0.40210000	-0.78686500	-0.12036100	-0.65429700	-0.53271500	0.11377000	-0.73632800	0.29370100	0.08764600	-0.80859400	0.06274400	0.20996100	-0.64917000	-0.27392600	-0.39331100	-0.61743200	-0.15698200	-0.49145500
1833	18.32000000	-0.92016600	-0.19848600	0.04858400	-0.68750000	0.19311500	-0.60522500	-0.38916000	-0.79516600	-0.12011700	-0.64624000	-0.52856400	0.10693400	-0.74536100	0.30249000	0.09619100	-0.80639600	0.06274400	0.21655300	-0.65747100	-0.27417000	-0.38501000	-0.62670900	-0.14843800	-0.47802700
1834	18.33000000	-0.92016600	-0.19848600	0.04638700	-0.69189500	0.19726600	-0.59155300	-0.37207000	-0.80566400	-0.12426800	-0.64819300	-0.53051800	0.10473600	-0.73877000	0.30664100	0.10937500	-0.80444300	0.07373000	0.21875000	-0.66967800	-0.28051800	-0.37670900	-0.64257800	-0.14428700	-0.45776400
1835	18.34000000	-0.91796900	-0.20068400	0.03979500	-0.69189500	0.19311500	-0.58886700	-0.36596700	-0.80566400	-0.12866200	-0.64819300	-0.52856400	0.10009800	-0.73217800	0.30688500	0.10473600	-0.79614300	0.08252000	0.23657200	-0.67797900	-0.28271500	-0.37036100	-0.65161100	-0.14233400	-0.44433600
1836	18.35000000	-0.91577100	-0.19848600	0.03759800	-0.69604500	0.19091800	-0.59130900	-0.34277300	-0.81176800	-0.13501000	-0.65869100	-0.52661100	0.09301800	-0.73266600	0.32446300	0.10376000	-0.79614300	0.08471700	0.24560500	-0.69873000	-0.28710900	-0.34741200	-0.66284200	-0.13793900	-0.43090800
1837	18.36000000	-0.91772500	-0.20288100	0.04199200	-0.70043900	0.19287100	-0.58667000	-0.31933600	-0.82006800	-0.13916000	-0.65673800	-0.52246100	0.09057600	-0.72192400	0.33764600	0.10986300	-0.79394500	0.08691400	0.24316400	-0.70288100	-0.29345700	-0.33081100	-0.66967800	-0.13818400	-0.41503900
1838	18.37000000	-0.91772500	-0.20288100	0.03979500	-0.69580100	0.18042000	-0.58374000	-0.30468800	-0.82641600	-0.13452100	-0.66503900	-0.52246100	0.08593800	-0.70849600	0.34423800	0.11596700	-0.79443400	0.09765600	0.25000000	-0.71948200	-0.29980500	-0.30981400	-0.68066400	-0.14038100	-0.40625000
1839	18.38000000	-0.91137700	-0.20068400	0.03320300	-0.69775400	0.17822300	-0.58618200	-0.28564500	-0.82836900	-0.14111300	-0.66528300	-0.51831100	0.07666000	-0.71313500	0.34619100	0.12719700	-0.78979500	0.09545900	0.25000000	-0.72949200	-0.31640600	-0.27417000	-0.68090800	-0.13598600	-0.40380900
1840	18.39000000	-0.92211900	-0.20288100	0.02880900	-0.70214800	0.18237300	-0.58398400	-0.27294900	-0.83252000	-0.14550800	-0.66943400	-0.51196300	0.06958000	-0.70654300	0.35717800	0.13989300	-0.78759800	0.09130900	0.24316400	-0.73144500	-0.32080100	-0.24292000	-0.68310500	-0.13403300	-0.39502000
1841	18.40000000	-0.91796900	-0.20068400	0.02880900	-0.70410200	0.17627000	-0.58593800	-0.24975600	-0.83886700	-0.14282200	-0.68017600	-0.50170900	0.06225600	-0.70239300	0.36816400	0.14599600	-0.78540000	0.09130900	0.25439500	-0.75219700	-0.32934600	-0.20141600	-0.69213900	-0.13183600	-0.38378900
1842	18.41000000	-0.91577100	-0.20288100	0.03100600	-0.70434600	0.18237300	-0.57690400	-0.23486300	-0.84716800	-0.14697300	-0.68457000	-0.49560500	0.04370100	-0.69824200	0.37475600	0.15234400	-0.78100600	0.09570300	0.25878900	-0.75195300	-0.33984400	-0.15747100	-0.69458000	-0.12744100	-0.38598600
1843	18.42000000	-0.92236300	-0.19433600	0.02197300	-0.69799800	0.18042000	-0.58154300	-0.20971700	-0.85131800	-0.15136700	-0.69091800	-0.49560500	0.04370100	-0.68920900	0.37915000	0.16088900	-0.78344700	0.10009800	0.26342800	-0.75585900	-0.35253900	-0.11132800	-0.69213900	-0.13623000	-0.38598600
1844	18.43000000	-0.91577100	-0.20068400	0.02221700	-0.70019500	0.18872100	-0.58642600	-0.18652300	-0.85546900	-0.13769500	-0.69970700	-0.48120100	0.02929700	-0.68920900	0.37695300	0.17456100	-0.78125000	0.10205100	0.27685500	-0.75537100	-0.36889600	-0.07568400	-0.69897500	-0.13208000	-0.37915000
1845	18.44000000	-0.91992200	-0.20068400	0.02441400	-0.70043900	0.18872100	-0.57714800	-0.17187500	-0.85742200	-0.13989300	-0.69580100	-0.47070300	0.02441400	-0.68286100	0.38574200	0.18066400	-0.77929700	0.10644500	0.26782200	-0.75317400	-0.37329100	-0.02978500	-0.69238300	-0.12744100	-0.37915000
1846	18.45000000	-0.91577100	-0.19848600	0.01538100	-0.69848600	0.19702100	-0.57519500	-0.15502900	-0.86157200	-0.12841800	-0.71289100	-0.45629900	0.01928700	-0.67407200	0.39453100	0.19140600	-0.77270500	0.11303700	0.27002000	-0.74658200	-0.39355500	0.00170900	-0.69433600	-0.13183600	-0.38159200
1847	18.46000000	-0.91577100	-0.19653300	0.01757800	-0.70092800	0.20556600	-0.58007800	-0.13403300	-0.86377000	-0.11718800	-0.72363300	-0.44604500	0.01196300	-0.66748000	0.40332000	0.18847700	-0.77319300	0.12402300	0.26977500	-0.73144500	-0.41601600	0.03955100	-0.69653300	-0.13623000	-0.38159200
1848	18.47000000	-0.92016600	-0.19213900	0.01733400	-0.70336900	0.21386700	-0.57568400	-0.12377900	-0.86377000	-0.09936500	-0.73437500	-0.43359400	-0.00244100	-0.66796900	0.41210900	0.18823200	-0.76245100	0.13281200	0.28100600	-0.71435500	-0.43432600	0.07128900	-0.70556600	-0.13208000	-0.38159200
